<?xml version="1.0" standalone="no"?>
<!DOCTYPE svg PUBLIC "-//W3C//DTD SVG 20010904//EN"
 "http://www.w3.org/TR/2001/REC-SVG-20010904/DTD/svg10.dtd">
<svg version="1.0" xmlns="http://www.w3.org/2000/svg"
 width="1040.000000pt" height="1000.000000pt" viewBox="0 0 1040.000000 1000.000000"
 preserveAspectRatio="xMidYMid meet">

<g transform="translate(0.000000,1000.000000) scale(0.100000,-0.100000)"
fill="#000000" stroke="none">
<path d="M0 5000 l0 -5000 5200 0 5200 0 0 5000 0 5000 -5200 0 -5200 0 0
-5000z m5345 1325 c72 -41 137 -79 145 -84 21 -11 29 -95 23 -218 l-6 -102 28
-7 c15 -4 106 -4 204 0 97 4 211 2 254 -3 75 -9 87 -14 285 -127 114 -64 223
-127 242 -139 19 -12 43 -24 53 -28 15 -6 17 -26 17 -231 l0 -226 -41 -20
c-41 -21 -361 -202 -389 -220 -16 -10 -85 -49 -165 -95 -56 -31 -277 -160
-315 -183 -14 -9 -27 -15 -30 -15 -3 0 -29 -15 -58 -33 -29 -19 -54 -34 -56
-34 -3 0 -158 -89 -274 -159 -63 -37 -71 -38 -125 -8 -23 13 -100 54 -170 91
-70 38 -134 75 -142 83 -12 12 -15 52 -15 213 0 109 3 205 6 214 8 20 42 41
414 251 173 98 355 201 404 229 49 28 92 57 94 64 3 11 -47 13 -269 10 l-274
-3 -155 -89 c-85 -49 -180 -102 -210 -119 -61 -33 -181 -102 -220 -126 -14 -9
-54 -32 -90 -51 -36 -20 -80 -44 -98 -55 -153 -90 -220 -128 -239 -135 -16 -7
-40 2 -105 39 -45 26 -119 67 -163 91 -126 67 -115 41 -115 285 0 158 3 215
13 223 6 5 48 30 92 54 44 25 143 81 220 125 181 104 199 115 330 188 61 34
184 105 275 158 91 52 232 133 314 181 83 47 157 86 166 86 8 0 74 -34 145
-75z m-1120 -1708 c33 -18 247 -141 475 -272 228 -132 435 -250 460 -264 l46
-24 234 135 c780 451 791 457 819 444 14 -6 80 -42 146 -80 66 -38 137 -79
157 -90 l38 -21 0 -75 c0 -41 3 -139 6 -217 l5 -142 -40 -26 c-44 -27 -137
-80 -160 -92 -19 -9 -197 -110 -236 -134 -16 -10 -48 -29 -70 -41 -22 -12 -48
-27 -57 -33 -19 -12 -191 -110 -258 -148 -25 -14 -67 -39 -95 -55 -27 -16 -68
-39 -90 -51 -22 -13 -48 -30 -57 -39 -10 -8 -18 -12 -18 -9 0 5 -251 -139
-295 -169 -11 -8 -24 -14 -31 -14 -12 0 -395 215 -614 345 -30 18 -75 44 -100
57 -25 14 -108 61 -185 105 -187 107 -355 203 -440 250 l-70 39 -3 199 c-1
110 0 209 2 220 3 11 31 36 63 55 32 18 112 67 178 107 66 40 122 73 125 73 3
0 32 -15 65 -33z"/>
<path d="M5125 6297 c-98 -54 -166 -92 -414 -234 -130 -75 -256 -147 -281
-161 -25 -14 -97 -55 -160 -92 -63 -37 -172 -100 -242 -139 -71 -40 -128 -78
-128 -85 0 -12 41 -38 201 -130 25 -14 53 -26 61 -26 9 0 148 76 309 168 162
93 371 213 464 267 94 53 188 109 210 124 80 54 75 64 75 -153 0 -107 3 -201
6 -210 5 -14 47 -16 370 -16 232 0 364 -4 364 -10 0 -5 -26 -23 -57 -39 -32
-16 -123 -66 -203 -111 -80 -46 -170 -96 -200 -113 -30 -17 -79 -45 -108 -64
-29 -18 -55 -33 -58 -33 -3 0 -30 -16 -60 -35 -30 -19 -57 -35 -61 -35 -3 0
-14 -6 -22 -14 -9 -7 -47 -30 -86 -51 -120 -63 -180 -100 -179 -110 0 -11 216
-138 252 -149 17 -6 156 69 629 340 723 412 690 392 672 409 -17 16 -276 168
-369 216 l-65 34 -290 3 c-194 2 -292 7 -296 14 -4 6 -7 80 -6 165 0 120 -3
157 -14 168 -27 26 -200 126 -227 130 -19 4 -46 -5 -87 -28z"/>
<path d="M5108 5897 c-79 -47 -155 -91 -208 -120 -30 -17 -68 -39 -85 -49 -16
-10 -41 -23 -55 -30 -14 -7 -42 -22 -62 -35 -20 -12 -72 -42 -115 -66 -43 -24
-132 -75 -198 -113 -66 -38 -132 -75 -146 -83 -43 -21 -50 -52 -48 -198 1
-102 4 -136 14 -140 8 -2 44 13 82 35 37 22 91 52 118 67 28 16 79 45 115 65
36 20 112 64 170 97 58 33 184 105 280 159 96 53 178 102 182 108 10 14 10
326 1 326 -5 0 -25 -10 -45 -23z"/>
<path d="M6490 5512 c-19 -10 -143 -81 -275 -156 -132 -76 -269 -154 -305
-174 -36 -19 -77 -43 -92 -51 -14 -9 -155 -90 -312 -180 l-286 -164 0 -164 c0
-163 0 -164 21 -158 12 4 112 59 223 123 176 101 648 370 746 424 146 82 313
183 316 193 3 6 3 82 2 168 l-3 157 -35 -18z"/>
<path d="M3850 5361 l0 -160 28 -19 c15 -10 75 -44 133 -76 89 -47 108 -54
113 -40 12 30 6 288 -7 304 -15 20 -237 150 -254 150 -10 0 -13 -36 -13 -159z"/>
<path d="M4878 4783 c-2 -81 -1 -157 3 -168 7 -20 263 -167 274 -157 3 3 5 76
5 163 l0 158 -29 20 c-16 12 -32 21 -36 21 -3 0 -43 22 -89 49 -134 79 -123
86 -128 -86z"/>
<path d="M6165 4541 c-38 -20 -86 -46 -105 -58 -19 -11 -84 -48 -145 -83 -60
-34 -123 -71 -140 -81 -16 -10 -55 -32 -85 -49 -30 -17 -125 -71 -210 -121
-85 -50 -168 -96 -185 -103 -16 -7 -39 -23 -49 -35 -26 -29 -41 -27 -121 20
-119 70 -667 384 -730 419 -33 18 -91 53 -130 77 -38 23 -79 43 -92 43 -34 0
-274 -140 -271 -158 2 -8 19 -24 38 -35 88 -48 480 -270 844 -479 220 -125
408 -228 419 -228 11 0 168 86 351 192 328 190 773 447 894 516 34 20 62 39
62 42 0 3 -24 20 -52 37 -116 68 -213 123 -218 123 -3 -1 -36 -18 -75 -39z"/>
<path d="M3852 4199 l3 -164 45 -28 c25 -15 317 -183 649 -372 437 -249 607
-342 613 -333 4 7 8 79 8 160 l0 146 -92 53 c-51 29 -145 82 -208 119 -107 62
-378 216 -480 273 -25 14 -121 70 -215 124 -93 55 -205 119 -248 142 l-78 43
3 -163z"/>
<path d="M6410 4293 c-63 -36 -141 -81 -173 -99 -33 -19 -62 -34 -66 -34 -4 0
-12 -5 -19 -12 -7 -7 -37 -26 -66 -43 -30 -16 -163 -93 -296 -170 -132 -77
-309 -179 -392 -226 -107 -60 -154 -93 -160 -110 -11 -26 -7 -294 4 -304 4 -4
46 16 95 45 79 47 136 80 258 150 309 177 852 489 892 514 28 17 54 40 57 51
3 11 6 84 6 163 0 107 -3 142 -12 142 -7 0 -65 -30 -128 -67z"/>
</g>
</svg>
